<svg width="16" height="17" viewBox="0 0 16 17" fill="none" xmlns="http://www.w3.org/2000/svg">
<path d="M0 8.5C0 12.9194 3.58065 16.5 8 16.5C12.4194 16.5 16 12.9194 16 8.5C16 4.08065 12.4194 0.5 8 0.5C3.58065 0.5 0 4.08065 0 8.5ZM8 1.53226C11.8065 1.53226 14.9677 4.66129 14.9677 8.5C14.9677 12.3387 11.8387 15.4677 8 15.4677C4.16129 15.4677 1.03226 12.371 1.03226 8.5C1.03226 4.69355 4.12903 1.53226 8 1.53226ZM8.3871 4.53226C8.22581 4.37097 8 4.37097 7.83871 4.53226L7.6129 4.75806C7.45161 4.91935 7.45161 5.14516 7.6129 5.30645L10.3871 7.95161H4.25806C4.03226 7.95161 3.87097 8.14516 3.87097 8.33871V8.66129C3.87097 8.8871 4.03226 9.04839 4.25806 9.04839H10.3871L7.6129 11.7258C7.45161 11.8871 7.45161 12.1129 7.6129 12.2742L7.83871 12.5C8 12.6613 8.22581 12.6613 8.3871 12.5L12.0968 8.79032C12.2581 8.62903 12.2581 8.40323 12.0968 8.24194L8.3871 4.53226Z" fill="white"/>
</svg>
