<svg width="255" height="57" viewBox="0 0 255 57" fill="none" xmlns="http://www.w3.org/2000/svg">
<path d="M106.232 23.9493C106.232 25.6694 105.5 27.0618 104.118 28.1266C105.5 29.2733 106.232 30.7476 106.232 32.5496V37.1364C106.232 37.464 106.151 37.7097 105.907 37.9554C105.663 38.2012 105.419 38.2831 105.094 38.2831C104.768 38.2831 104.524 38.2012 104.28 37.9554C104.036 37.7097 103.955 37.464 103.955 37.1364V32.5496C103.955 31.5667 103.63 30.8295 102.979 30.0923C102.328 29.4371 101.515 29.1095 100.539 29.1095H90.8595C90.4528 29.1095 90.2902 29.2733 90.2902 29.6828V37.1364C90.2902 37.464 90.2088 37.7097 89.9648 37.9554C89.7208 38.2012 89.4768 38.2831 89.1514 38.2831C88.8261 38.2831 88.5821 38.2012 88.338 37.9554C88.094 37.7097 88.0127 37.464 88.0127 37.1364V27.9628C88.0127 27.6351 88.094 27.3894 88.338 27.1437C88.5821 26.898 88.8261 26.8161 89.1514 26.8161H101.108C101.922 26.8161 102.572 26.5703 103.142 25.997C103.711 25.4236 103.955 24.7684 103.955 23.9493V21.0826H89.1514C88.8261 21.0826 88.5821 21.0006 88.338 20.7549C88.094 20.5092 88.0127 20.2635 88.0127 19.9359C88.0127 19.6082 88.094 19.3625 88.338 19.1168C88.5821 18.8711 88.8261 18.7892 89.1514 18.7892H105.094C105.419 18.7892 105.663 18.8711 105.907 19.1168C106.151 19.3625 106.232 19.6082 106.232 19.9359V23.9493Z" fill="white"/>
<path d="M114.284 38.283C112.739 38.283 111.356 37.7097 110.218 36.6449C109.079 35.4982 108.591 34.1877 108.591 32.5495V24.5226C108.591 22.9664 109.16 21.574 110.218 20.5092C111.356 19.3625 112.658 18.871 114.284 18.871H121.117C122.662 18.871 124.045 19.4444 125.184 20.5092C126.323 21.6559 126.811 22.9664 126.811 24.5226V32.5495C126.811 34.1058 126.241 35.4982 125.184 36.6449C124.045 37.7916 122.744 38.283 121.117 38.283H114.284ZM114.284 21.0825C113.308 21.0825 112.495 21.4102 111.844 22.0654C111.194 22.7207 110.868 23.5397 110.868 24.5226V32.5495C110.868 33.5324 111.194 34.3515 111.844 35.0067C112.495 35.662 113.308 35.9896 114.284 35.9896H121.117C122.093 35.9896 122.825 35.662 123.557 35.0067C124.208 34.3515 124.533 33.5324 124.533 32.5495V24.5226C124.533 23.5397 124.208 22.8026 123.557 22.0654C122.906 21.4102 122.093 21.0825 121.117 21.0825H114.284Z" fill="white"/>
<path d="M144.868 27.4713C146.576 28.4542 147.389 29.9285 147.389 31.8943V33.041C147.389 34.4334 146.901 35.662 145.925 36.6449C144.949 37.6278 143.729 38.1192 142.265 38.1192H130.308C129.983 38.1192 129.739 38.0373 129.495 37.7916C129.251 37.5459 129.169 37.3002 129.169 36.9725C129.169 36.6449 129.251 36.3992 129.495 36.1535C129.739 35.9078 129.983 35.8258 130.308 35.8258H142.265C143.078 35.8258 143.729 35.5801 144.298 35.0068C144.868 34.4334 145.112 33.7782 145.112 32.9591V31.8124C145.112 30.9933 144.868 30.3381 144.298 29.7647C143.729 29.1914 143.078 28.9456 142.265 28.9456H130.308C129.983 28.9456 129.739 28.8637 129.495 28.618C129.251 28.3723 129.169 28.1266 129.169 27.7989C129.169 27.4713 129.251 27.2256 129.495 26.9799C129.739 26.7341 129.983 26.6522 130.308 26.6522H141.126C141.94 26.6522 142.59 26.4065 143.078 25.8332C143.648 25.2598 143.892 24.6046 143.892 23.8674C143.892 23.0483 143.648 22.3931 143.078 21.8197C142.509 21.2464 141.777 21.0006 141.045 21.0006H130.308C129.983 21.0006 129.739 20.9187 129.495 20.673C129.251 20.4273 129.169 20.1816 129.169 19.8539C129.169 19.5263 129.251 19.2806 129.495 19.0349C129.739 18.8711 130.064 18.7892 130.308 18.7892H141.045C142.428 18.7892 143.648 19.2806 144.705 20.2635C145.762 21.2464 146.25 22.475 146.25 23.8674C146.25 25.2598 145.844 26.4884 144.868 27.4713Z" fill="white"/>
<path d="M155.523 38.2831C153.978 38.2831 152.595 37.7097 151.456 36.6449C150.318 35.4982 149.83 34.1877 149.83 32.5496V19.9359C149.83 19.6082 149.911 19.3625 150.155 19.1168C150.318 18.8711 150.643 18.7892 150.968 18.7892C151.294 18.7892 151.538 18.8711 151.782 19.1168C152.026 19.3625 152.107 19.6082 152.107 19.9359V32.5496C152.107 33.5324 152.432 34.3515 153.083 35.0068C153.734 35.662 154.547 35.9897 155.523 35.9897H162.356C163.332 35.9897 164.064 35.662 164.796 35.0068C165.447 34.3515 165.772 33.5324 165.772 32.5496V19.9359C165.772 19.6082 165.853 19.3625 166.097 19.1168C166.341 18.8711 166.585 18.7892 166.911 18.7892C167.236 18.7892 167.48 18.8711 167.724 19.1168C167.968 19.3625 168.049 19.6082 168.049 19.9359V32.5496C168.049 34.1058 167.48 35.4982 166.423 36.6449C165.365 37.7916 163.982 38.2831 162.356 38.2831H155.523Z" fill="white"/>
<path d="M171.059 38.283C170.896 38.283 170.733 38.2011 170.652 38.1192C170.489 38.0373 170.489 37.8735 170.489 37.7097V36.7268C170.489 36.563 170.571 36.3992 170.652 36.2353C170.733 36.1534 170.896 36.0715 171.059 36.0715H172.035C172.197 36.0715 172.36 36.1534 172.523 36.2353C172.604 36.3992 172.685 36.4811 172.685 36.7268V37.6278C172.685 37.7916 172.604 37.9554 172.523 38.0373C172.36 38.2011 172.279 38.2011 172.035 38.2011H171.059V38.283Z" fill="white"/>
<path d="M192.125 18.7892C192.451 18.7892 192.695 18.8711 192.939 19.1168C193.183 19.3625 193.264 19.6082 193.264 19.9359C193.264 20.2635 193.183 20.5092 192.939 20.7549C192.695 21.0006 192.451 21.0826 192.125 21.0826H185.862C185.456 21.0826 185.293 21.2464 185.293 21.6559V37.1364C185.293 37.464 185.212 37.7097 184.968 37.9554C184.724 38.2012 184.48 38.2831 184.154 38.2831C183.829 38.2831 183.585 38.2012 183.341 37.9554C183.097 37.7097 183.016 37.464 183.016 37.1364V21.6559C183.016 21.2464 182.853 21.0826 182.446 21.0826H176.183C175.858 21.0826 175.614 21.0006 175.37 20.7549C175.126 20.5092 175.044 20.2635 175.044 19.9359C175.044 19.6082 175.126 19.3625 175.37 19.1168C175.614 18.8711 175.858 18.7892 176.183 18.7892H192.125V18.7892Z" fill="white"/>
<path d="M195.623 19.9359C195.623 19.6082 195.704 19.3625 195.948 19.1168C196.192 18.8711 196.436 18.7892 196.762 18.7892H212.704C213.029 18.7892 213.273 18.8711 213.517 19.1168C213.761 19.3625 213.843 19.6082 213.843 19.9359C213.843 20.2635 213.761 20.5092 213.517 20.7549C213.273 21.0006 213.029 21.0826 212.704 21.0826H196.762C196.436 21.0826 196.192 21.0006 195.948 20.7549C195.704 20.5092 195.623 20.2635 195.623 19.9359ZM196.762 29.1095C196.436 29.1095 196.192 29.0275 195.948 28.7818C195.704 28.5361 195.623 28.2904 195.623 27.9628C195.623 27.6351 195.704 27.3894 195.948 27.1437C196.192 26.898 196.436 26.8161 196.762 26.8161H212.704C213.029 26.8161 213.273 26.898 213.517 27.1437C213.761 27.3894 213.843 27.6351 213.843 27.9628C213.843 28.2904 213.761 28.5361 213.517 28.7818C213.273 29.0275 213.029 29.1095 212.704 29.1095H196.762ZM196.762 38.2831C196.436 38.2831 196.192 38.2012 195.948 37.9554C195.704 37.7097 195.623 37.464 195.623 37.1364C195.623 36.8087 195.704 36.563 195.948 36.3173C196.192 36.0716 196.436 35.9897 196.762 35.9897H212.704C213.029 35.9897 213.273 36.0716 213.517 36.3173C213.761 36.563 213.843 36.8087 213.843 37.1364C213.843 37.464 213.761 37.7097 213.517 37.9554C213.273 38.2012 213.029 38.2831 212.704 38.2831H196.762Z" fill="white"/>
<path d="M221.895 38.283C220.35 38.283 218.967 37.7097 217.828 36.6449C216.69 35.4982 216.202 34.1877 216.202 32.5495V24.5226C216.202 22.9664 216.771 21.574 217.828 20.5092C218.967 19.3625 220.269 18.871 221.895 18.871H233.283C233.608 18.871 233.852 18.9529 234.096 19.1987C234.34 19.4444 234.421 19.6901 234.421 20.0177C234.421 20.3454 234.34 20.5911 234.096 20.8368C233.852 21.0825 233.608 21.1644 233.283 21.1644H221.895C220.919 21.1644 220.106 21.4921 219.455 22.1473C218.804 22.8026 218.479 23.6216 218.479 24.6045V32.6314C218.479 33.6143 218.804 34.4334 219.455 35.0887C220.106 35.7439 220.919 36.0715 221.895 36.0715H233.283C233.608 36.0715 233.852 36.1534 234.096 36.3992C234.34 36.6449 234.421 36.8906 234.421 37.2182C234.421 37.5459 234.34 37.7916 234.096 38.0373C233.852 38.283 233.608 38.3649 233.283 38.3649H221.895V38.283Z" fill="white"/>
<path d="M252.723 19.9359C252.723 19.6082 252.804 19.3625 253.048 19.1168C253.292 18.8711 253.536 18.7892 253.861 18.7892C254.187 18.7892 254.431 18.8711 254.675 19.1168C254.919 19.3625 255 19.6082 255 19.9359V37.1364C255 37.464 254.919 37.7097 254.675 37.9554C254.431 38.2012 254.187 38.2831 253.861 38.2831C253.536 38.2831 253.292 38.2012 253.048 37.9554C252.804 37.7097 252.723 37.464 252.723 37.1364V29.6828C252.723 29.2733 252.56 29.1095 252.153 29.1095H239.627C239.22 29.1095 239.058 29.2733 239.058 29.6828V37.1364C239.058 37.464 238.976 37.7097 238.732 37.9554C238.488 38.2012 238.244 38.2831 237.919 38.2831C237.594 38.2831 237.35 38.2012 237.106 37.9554C236.862 37.7097 236.78 37.464 236.78 37.1364V19.9359C236.78 19.6082 236.862 19.3625 237.106 19.1168C237.35 18.8711 237.594 18.7892 237.919 18.7892C238.244 18.7892 238.488 18.8711 238.732 19.1168C238.976 19.3625 239.058 19.6082 239.058 19.9359V26.2427C239.058 26.6522 239.22 26.8161 239.627 26.8161H252.153C252.56 26.8161 252.723 26.6522 252.723 26.2427V19.9359Z" fill="white"/>
<path d="M51.6539 44.2359C51.0328 43.6236 50.4282 42.9866 49.8402 42.3413C48.6393 44.0704 47.2562 45.6754 45.7158 47.1233C47.7863 46.3373 49.7739 45.3693 51.6539 44.2359ZM53.0618 54.3129C53.7492 52.9726 54.7265 51.8226 55.8942 50.929C56.6313 50.3665 57.4429 49.9114 58.3125 49.5639C56.565 48.4388 54.917 47.1895 53.3765 45.8244C50.453 47.6528 47.2728 49.1089 43.9104 50.11C47.0161 51.3758 50.0721 52.7823 53.0618 54.3129ZM57.4512 9.88471C54.6768 8.29622 51.7699 6.98075 48.7801 5.9383C50.246 7.79982 51.4883 9.81853 52.4738 11.9365C54.0639 11.134 55.7286 10.439 57.4512 9.88471ZM59.4057 37.9481C58.9668 37.3276 58.71 36.5664 58.71 35.7474C58.71 35.011 58.9171 34.3243 59.2815 33.7369C57.9398 32.3718 56.5402 31.0729 55.0743 29.865C55.0246 29.8815 54.9666 29.8981 54.9087 29.9146C54.2875 33.6376 52.979 37.1704 51.1073 40.3556C51.8941 41.2574 52.7305 42.1344 53.6001 42.9618C54.6022 42.2668 55.5712 41.5139 56.4988 40.7197C57.5175 39.8592 58.4864 38.9243 59.4057 37.9481ZM64.0104 39.2801C63.5632 39.4704 63.0663 39.5697 62.5445 39.5697C62.0725 39.5697 61.617 39.4869 61.2029 39.3297C60.1842 40.4301 59.1076 41.4725 57.9647 42.4488C57.1116 43.1769 56.2255 43.8718 55.3145 44.5254C57.269 46.1884 59.3892 47.6776 61.6667 48.9517C64.1015 49.4481 65.7579 49.3157 66.6358 48.5546C67.464 47.8348 67.6876 46.4118 67.3066 44.2772C66.2879 42.5398 65.1865 40.8686 64.0104 39.2801ZM62.5445 31.9168C62.9918 31.9168 63.4307 31.9912 63.8282 32.1402C64.9297 30.3366 65.8904 28.4254 66.6689 26.4315C62.8924 22.3527 58.6272 18.8779 54.0225 16.0401C54.7596 18.4725 55.1903 20.9959 55.2979 23.5606C56.4822 24.0901 57.3104 25.2815 57.3104 26.6632C57.3104 27.3002 57.1365 27.8876 56.8383 28.4006C58.2794 29.6085 59.6625 30.8909 60.9793 32.2477C61.4596 32.0409 61.9897 31.9168 62.5445 31.9168ZM46.4778 24.057C46.1299 25.6124 45.0284 26.8948 43.5874 27.4905C44.929 31.2714 46.8256 34.8042 49.1942 37.9812C49.3184 38.1466 49.4427 38.3204 49.5752 38.4859C51.0493 35.8053 52.0928 32.8765 52.6312 29.8153C51.3889 29.3107 50.511 28.0862 50.511 26.6632C50.511 26.6053 50.511 26.5473 50.5193 26.4811C49.2687 25.6538 47.9768 24.8761 46.66 24.1481L46.4778 24.057ZM45.4011 19.7631C45.8235 20.243 46.1465 20.8139 46.3535 21.4344C46.8173 21.6743 47.2894 21.9225 47.7449 22.1707C48.9872 22.8574 50.2129 23.5855 51.3972 24.3632C51.8278 23.8916 52.391 23.5441 53.0287 23.3704C52.8879 20.7311 52.3827 18.125 51.5297 15.6513C51.4717 15.4775 51.4055 15.3121 51.3475 15.1383C50.9582 15.3783 50.569 15.6182 50.188 15.8747C48.4737 17.0164 46.8753 18.3153 45.4011 19.7631ZM36.9702 35.3585C38.1628 35.3585 39.1235 36.3265 39.1235 37.5096C39.1235 38.701 38.1628 39.6607 36.9702 39.6607C35.7776 39.6607 34.8169 38.701 34.8169 37.5096C34.8169 36.3182 35.7859 35.3585 36.9702 35.3585ZM26.2452 25.9103C27.9595 25.9103 29.3426 27.2919 29.3426 29.0045C29.3426 30.7171 27.9595 32.0988 26.2452 32.0988C24.5308 32.0988 23.1478 30.7171 23.1478 29.0045C23.1478 27.2919 24.5391 25.9103 26.2452 25.9103ZM44.9208 4.97859C44.8462 4.90413 44.78 4.82139 44.722 4.73039C44.5729 4.68902 44.4239 4.65593 44.2665 4.61456C39.2974 3.3901 34.1461 2.91851 28.9699 3.2329C28.6469 3.80377 28.0341 4.19262 27.3301 4.19262C26.2949 4.19262 25.4501 3.34873 25.4501 2.31455C25.4501 1.28038 26.2949 0.436493 27.3301 0.436493C27.8519 0.436493 28.3157 0.643328 28.6552 0.982537C34.1129 0.626781 39.5541 1.12318 44.8048 2.42211C45.3845 2.56276 45.956 2.71168 46.5274 2.87715C50.4779 2.26491 54.4283 2.82751 57.9481 4.37463C61.7826 6.05413 65.1036 8.89191 67.348 12.6563C68.4661 14.4847 69.1617 16.5117 69.4268 18.5883C69.6835 20.6236 69.5261 22.7168 68.9298 24.7355C68.8967 25.0995 68.9381 25.4635 69.0375 25.8027C69.0458 25.8358 69.0624 25.8606 69.0624 25.8937C69.1783 26.2578 69.3771 26.597 69.6255 26.9031C69.6504 26.9362 69.6752 26.961 69.7001 26.9941L73.8493 32.5704C74.4621 33.4556 74.3545 34.3574 73.518 35.2509C73.0377 35.7722 72.2343 36.3017 71.1328 36.8394C71.0914 36.9387 71.0583 37.0628 71.05 37.2117C71.0252 37.584 71.108 38.0556 71.2902 38.6348C71.3316 38.7754 71.3482 38.9078 71.3399 39.0402C71.3316 39.5448 71.1825 40.033 70.9175 40.4384C70.8678 40.5211 70.8098 40.5956 70.7519 40.67C70.8015 40.8024 70.843 40.9348 70.8761 41.0754C71.0003 41.5966 70.992 42.1427 70.8512 42.6805C70.7104 43.21 70.4371 43.6898 70.0727 44.0787C69.932 44.2276 69.7829 44.3682 69.609 44.4841C69.9734 47.1398 69.4682 49.0675 68.0934 50.2589C66.6523 51.5082 64.35 51.806 61.1863 51.1607C59.7287 51.3096 58.3705 51.8557 57.2442 52.7161C56.1013 53.5931 55.1985 54.7844 54.6768 56.1909C54.6602 56.2571 54.6271 56.3316 54.594 56.3978C54.3041 56.9521 53.6167 57.1589 53.0701 56.8693C49.0534 54.7514 44.9125 52.8816 40.6722 51.2765C37.3346 50.0107 33.939 48.9021 30.5021 47.9672C29.9637 48.869 28.9782 49.4812 27.8519 49.4812C26.1541 49.4812 24.7793 48.1078 24.7793 46.4035C24.7793 44.7075 26.1541 43.3341 27.8519 43.3341C29.3178 43.3341 30.5435 44.3517 30.8499 45.7251C33.9722 46.569 37.0613 47.5452 40.0842 48.6539C43.3886 46.5193 46.1713 43.7477 48.2915 40.5542C47.9685 40.1488 47.6538 39.7434 47.3473 39.3297C44.7634 35.8549 42.7095 31.9912 41.2933 27.8545C38.7591 27.6642 36.7631 25.5463 36.7631 22.965C36.7631 21.9473 37.0779 20.9959 37.6079 20.2182C31.852 18.3153 25.74 17.3639 19.4955 17.4962C19.1559 17.9926 18.5928 18.3153 17.9468 18.3153C16.9115 18.3153 16.0668 17.4714 16.0668 16.4372C16.0668 15.4031 16.9115 14.5592 17.9468 14.5592C18.5265 14.5592 19.0483 14.8239 19.3961 15.2376C26.3943 15.0804 33.2268 16.2304 39.6121 18.5139C40.2415 18.2243 40.9372 18.0588 41.6743 18.0588C42.3285 18.0588 42.9497 18.1829 43.5211 18.4146C45.1775 16.7599 46.9829 15.2707 48.9209 13.98C49.1445 13.8311 49.3681 13.6905 49.5917 13.5498C45.9146 11.6966 42.0718 10.2156 38.1131 9.14838C27.8187 6.35197 16.779 6.27751 6.12857 9.23112V9.31385C6.12857 11.0099 4.75378 12.3833 3.056 12.3833C1.35822 12.3833 0 11.0182 0 9.32212C0 7.62608 1.37479 6.25269 3.07257 6.25269C3.91732 6.25269 4.68753 6.5919 5.24241 7.14622C16.3815 4.00233 27.943 4.05197 38.7177 6.97248C42.3865 7.96529 45.9726 9.2973 49.4095 10.952C48.2004 8.79262 46.6931 6.78219 44.9208 4.97859Z" fill="white"/>
</svg>
