<svg width="456" height="102" viewBox="0 0 456 102" fill="none" xmlns="http://www.w3.org/2000/svg">
<path d="M189.764 42.0008C189.764 45.0733 188.456 47.5606 185.986 49.4627C188.456 51.511 189.764 54.1446 189.764 57.3635V65.5569C189.764 66.1422 189.618 66.5811 189.182 67.02C188.747 67.459 188.311 67.6053 187.729 67.6053C187.148 67.6053 186.712 67.459 186.277 67.02C185.841 66.5811 185.695 66.1422 185.695 65.5569V57.3635C185.695 55.6078 185.114 54.291 183.952 52.9741C182.789 51.8037 181.336 51.2184 179.593 51.2184H162.303C161.576 51.2184 161.286 51.511 161.286 52.2426V65.5569C161.286 66.1422 161.14 66.5811 160.705 67.02C160.269 67.459 159.833 67.6053 159.252 67.6053C158.67 67.6053 158.235 67.459 157.799 67.02C157.363 66.5811 157.218 66.1422 157.218 65.5569V49.1701C157.218 48.5848 157.363 48.1459 157.799 47.7069C158.235 47.268 158.67 47.1217 159.252 47.1217H180.61C182.063 47.1217 183.225 46.6828 184.242 45.6586C185.259 44.6344 185.695 43.4639 185.695 42.0008V36.8799H159.252C158.67 36.8799 158.235 36.7336 157.799 36.2947C157.363 35.8557 157.218 35.4168 157.218 34.8316C157.218 34.2463 157.363 33.8074 157.799 33.3684C158.235 32.9295 158.67 32.7832 159.252 32.7832H187.729C188.311 32.7832 188.747 32.9295 189.182 33.3684C189.618 33.8074 189.764 34.2463 189.764 34.8316V42.0008Z" fill="#0B103F"/>
<path d="M204.148 67.6049C201.388 67.6049 198.918 66.5808 196.883 64.6787C194.849 62.6304 193.978 60.2894 193.978 57.3632V43.0247C193.978 40.2448 194.995 37.7575 196.883 35.8554C198.918 33.8071 201.242 32.9292 204.148 32.9292H216.353C219.114 32.9292 221.584 33.9534 223.618 35.8554C225.652 37.9038 226.524 40.2448 226.524 43.0247V57.3632C226.524 60.1431 225.507 62.6304 223.618 64.6787C221.584 66.7271 219.259 67.6049 216.353 67.6049H204.148ZM204.148 36.8796C202.405 36.8796 200.952 37.4648 199.789 38.6353C198.627 39.8058 198.046 41.2689 198.046 43.0247V57.3632C198.046 59.1189 198.627 60.582 199.789 61.7525C200.952 62.923 202.405 63.5082 204.148 63.5082H216.353C218.097 63.5082 219.404 62.923 220.712 61.7525C221.874 60.582 222.455 59.1189 222.455 57.3632V43.0247C222.455 41.2689 221.874 39.9521 220.712 38.6353C219.549 37.4648 218.097 36.8796 216.353 36.8796H204.148Z" fill="#0B103F"/>
<path d="M258.779 48.2922C261.83 50.0479 263.283 52.6815 263.283 56.193V58.2414C263.283 60.7286 262.411 62.9233 260.668 64.679C258.924 66.4348 256.745 67.3126 254.13 67.3126H232.771C232.19 67.3126 231.754 67.1663 231.318 66.7274C230.882 66.2885 230.737 65.8495 230.737 65.2643C230.737 64.679 230.882 64.2401 231.318 63.8012C231.754 63.3622 232.19 63.2159 232.771 63.2159H254.13C255.582 63.2159 256.745 62.777 257.762 61.7528C258.779 60.7286 259.215 59.5581 259.215 58.095V56.0467C259.215 54.5836 258.779 53.4131 257.762 52.3889C256.745 51.3647 255.582 50.9258 254.13 50.9258H232.771C232.19 50.9258 231.754 50.7795 231.318 50.3405C230.882 49.9016 230.737 49.4627 230.737 48.8774C230.737 48.2922 230.882 47.8533 231.318 47.4143C231.754 46.9754 232.19 46.8291 232.771 46.8291H252.095C253.548 46.8291 254.711 46.3901 255.582 45.366C256.6 44.3418 257.035 43.1713 257.035 41.8545C257.035 40.3914 256.6 39.2209 255.582 38.1967C254.565 37.1725 253.258 36.7336 251.95 36.7336H232.771C232.19 36.7336 231.754 36.5873 231.318 36.1484C230.882 35.7094 230.737 35.2705 230.737 34.6852C230.737 34.1 230.882 33.6611 231.318 33.2221C231.754 32.9295 232.335 32.7832 232.771 32.7832H251.95C254.42 32.7832 256.6 33.6611 258.488 35.4168C260.377 37.1725 261.249 39.3672 261.249 41.8545C261.249 44.3418 260.523 46.5365 258.779 48.2922Z" fill="#0B103F"/>
<path d="M277.812 67.6053C275.052 67.6053 272.582 66.5811 270.548 64.679C268.514 62.6307 267.642 60.2897 267.642 57.3635V34.8316C267.642 34.2463 267.787 33.8074 268.223 33.3684C268.514 32.9295 269.095 32.7832 269.676 32.7832C270.257 32.7832 270.693 32.9295 271.129 33.3684C271.565 33.8074 271.71 34.2463 271.71 34.8316V57.3635C271.71 59.1192 272.291 60.5823 273.454 61.7528C274.616 62.9233 276.069 63.5086 277.812 63.5086H290.017C291.761 63.5086 293.068 62.9233 294.376 61.7528C295.538 60.5823 296.12 59.1192 296.12 57.3635V34.8316C296.12 34.2463 296.265 33.8074 296.701 33.3684C297.137 32.9295 297.573 32.7832 298.154 32.7832C298.735 32.7832 299.171 32.9295 299.607 33.3684C300.043 33.8074 300.188 34.2463 300.188 34.8316V57.3635C300.188 60.1434 299.171 62.6307 297.282 64.679C295.393 66.7274 292.923 67.6053 290.017 67.6053H277.812Z" fill="#0B103F"/>
<path d="M305.564 67.6052C305.273 67.6052 304.983 67.4589 304.837 67.3126C304.547 67.1663 304.547 66.8736 304.547 66.581V64.8253C304.547 64.5327 304.692 64.24 304.837 63.9474C304.983 63.8011 305.273 63.6548 305.564 63.6548H307.307C307.598 63.6548 307.889 63.8011 308.179 63.9474C308.325 64.24 308.47 64.3863 308.47 64.8253V66.4347C308.47 66.7273 308.325 67.0199 308.179 67.1663C307.889 67.4589 307.743 67.4589 307.307 67.4589H305.564V67.6052Z" fill="#0B103F"/>
<path d="M343.195 32.7832C343.776 32.7832 344.212 32.9295 344.648 33.3684C345.084 33.8074 345.229 34.2463 345.229 34.8316C345.229 35.4168 345.084 35.8557 344.648 36.2947C344.212 36.7336 343.776 36.8799 343.195 36.8799H332.008C331.281 36.8799 330.991 37.1725 330.991 37.9041V65.5569C330.991 66.1422 330.845 66.5811 330.409 67.02C329.973 67.459 329.538 67.6053 328.956 67.6053C328.375 67.6053 327.939 67.459 327.503 67.02C327.068 66.5811 326.922 66.1422 326.922 65.5569V37.9041C326.922 37.1725 326.632 36.8799 325.905 36.8799H314.717C314.136 36.8799 313.7 36.7336 313.265 36.2947C312.829 35.8557 312.683 35.4168 312.683 34.8316C312.683 34.2463 312.829 33.8074 313.265 33.3684C313.7 32.9295 314.136 32.7832 314.717 32.7832H343.195V32.7832Z" fill="#0B103F"/>
<path d="M349.443 34.8316C349.443 34.2463 349.588 33.8074 350.024 33.3684C350.46 32.9295 350.896 32.7832 351.477 32.7832H379.955C380.536 32.7832 380.972 32.9295 381.408 33.3684C381.844 33.8074 381.989 34.2463 381.989 34.8316C381.989 35.4168 381.844 35.8557 381.408 36.2947C380.972 36.7336 380.536 36.8799 379.955 36.8799H351.477C350.896 36.8799 350.46 36.7336 350.024 36.2947C349.588 35.8557 349.443 35.4168 349.443 34.8316ZM351.477 51.2184C350.896 51.2184 350.46 51.0721 350.024 50.6332C349.588 50.1942 349.443 49.7553 349.443 49.1701C349.443 48.5848 349.588 48.1459 350.024 47.7069C350.46 47.268 350.896 47.1217 351.477 47.1217H379.955C380.536 47.1217 380.972 47.268 381.408 47.7069C381.844 48.1459 381.989 48.5848 381.989 49.1701C381.989 49.7553 381.844 50.1942 381.408 50.6332C380.972 51.0721 380.536 51.2184 379.955 51.2184H351.477ZM351.477 67.6053C350.896 67.6053 350.46 67.459 350.024 67.02C349.588 66.5811 349.443 66.1422 349.443 65.5569C349.443 64.9717 349.588 64.5327 350.024 64.0938C350.46 63.6549 350.896 63.5086 351.477 63.5086H379.955C380.536 63.5086 380.972 63.6549 381.408 64.0938C381.844 64.5327 381.989 64.9717 381.989 65.5569C381.989 66.1422 381.844 66.5811 381.408 67.02C380.972 67.459 380.536 67.6053 379.955 67.6053H351.477Z" fill="#0B103F"/>
<path d="M396.373 67.605C393.612 67.605 391.142 66.5808 389.108 64.6787C387.074 62.6304 386.202 60.2894 386.202 57.3632V43.0247C386.202 40.2448 387.219 37.7575 389.108 35.8554C391.142 33.8071 393.467 32.9292 396.373 32.9292H416.714C417.296 32.9292 417.731 33.0755 418.167 33.5144C418.603 33.9534 418.748 34.3923 418.748 34.9776C418.748 35.5628 418.603 36.0017 418.167 36.4407C417.731 36.8796 417.296 37.0259 416.714 37.0259H396.373C394.629 37.0259 393.177 37.6112 392.014 38.7816C390.852 39.9521 390.271 41.4152 390.271 43.171V57.5095C390.271 59.2652 390.852 60.7283 392.014 61.8988C393.177 63.0693 394.629 63.6546 396.373 63.6546H416.714C417.296 63.6546 417.731 63.8009 418.167 64.2398C418.603 64.6787 418.748 65.1177 418.748 65.7029C418.748 66.2882 418.603 66.7271 418.167 67.166C417.731 67.605 417.296 67.7513 416.714 67.7513H396.373V67.605Z" fill="#0B103F"/>
<path d="M451.44 34.8316C451.44 34.2463 451.585 33.8074 452.021 33.3684C452.457 32.9295 452.893 32.7832 453.474 32.7832C454.055 32.7832 454.491 32.9295 454.927 33.3684C455.363 33.8074 455.508 34.2463 455.508 34.8316V65.5569C455.508 66.1422 455.363 66.5811 454.927 67.02C454.491 67.459 454.055 67.6053 453.474 67.6053C452.893 67.6053 452.457 67.459 452.021 67.02C451.585 66.5811 451.44 66.1422 451.44 65.5569V52.2426C451.44 51.511 451.149 51.2184 450.423 51.2184H428.047C427.321 51.2184 427.03 51.511 427.03 52.2426V65.5569C427.03 66.1422 426.885 66.5811 426.449 67.02C426.013 67.459 425.577 67.6053 424.996 67.6053C424.415 67.6053 423.979 67.459 423.543 67.02C423.107 66.5811 422.962 66.1422 422.962 65.5569V34.8316C422.962 34.2463 423.107 33.8074 423.543 33.3684C423.979 32.9295 424.415 32.7832 424.996 32.7832C425.577 32.7832 426.013 32.9295 426.449 33.3684C426.885 33.8074 427.03 34.2463 427.03 34.8316V46.0975C427.03 46.8291 427.321 47.1217 428.047 47.1217H450.423C451.149 47.1217 451.44 46.8291 451.44 46.0975V34.8316Z" fill="#0B103F"/>
<path d="M92.2696 78.2391C91.1601 77.1454 90.0801 76.0074 89.0298 74.8547C86.8847 77.9435 84.4141 80.8106 81.6624 83.3969C85.3609 81.9929 88.9114 80.2637 92.2696 78.2391ZM94.7846 96.2396C96.0125 93.8455 97.7582 91.7912 99.8441 90.1951C101.161 89.1902 102.611 88.3773 104.164 87.7566C101.042 85.7467 98.0984 83.5151 95.3468 81.0766C90.1245 84.3427 84.4437 86.9438 78.4373 88.732C83.9851 90.9932 89.444 93.5056 94.7846 96.2396ZM102.625 16.8774C97.6694 14.0399 92.4768 11.69 87.1362 9.82791C89.7547 13.1531 91.9738 16.7592 93.7342 20.5426C96.5747 19.109 99.5483 17.8676 102.625 16.8774ZM106.117 67.0071C105.333 65.8987 104.874 64.5391 104.874 63.076C104.874 61.7607 105.244 60.534 105.895 59.4847C103.498 57.0462 100.998 54.7259 98.3795 52.5682C98.2908 52.5978 98.1872 52.6274 98.0837 52.6569C96.9741 59.3074 94.6367 65.6179 91.2932 71.3078C92.6987 72.9187 94.1929 74.4852 95.7462 75.9631C97.5363 74.7217 99.2672 73.3768 100.924 71.9581C102.744 70.4211 104.475 68.751 106.117 67.0071ZM114.342 69.3865C113.543 69.7264 112.656 69.9038 111.724 69.9038C110.88 69.9038 110.067 69.756 109.327 69.4752C107.507 71.4408 105.584 73.3029 103.543 75.0468C102.019 76.3474 100.436 77.5888 98.8086 78.7563C102.3 81.7269 106.087 84.387 110.155 86.663C114.505 87.5497 117.464 87.3132 119.032 85.9536C120.511 84.6678 120.911 82.1259 120.23 78.3129C118.41 75.2094 116.443 72.2241 114.342 69.3865ZM111.724 56.2334C112.523 56.2334 113.307 56.3664 114.017 56.6324C115.984 53.4106 117.7 49.9967 119.091 46.435C112.345 39.1491 104.726 32.942 96.5007 27.8728C97.8174 32.2178 98.5866 36.7254 98.779 41.3068C100.895 42.2526 102.374 44.3808 102.374 46.8488C102.374 47.9868 102.063 49.0361 101.531 49.9524C104.105 52.1101 106.575 54.4008 108.928 56.8245C109.786 56.4551 110.732 56.2334 111.724 56.2334ZM83.0235 42.1935C82.4021 44.9719 80.4345 47.2626 77.8604 48.3267C80.257 55.0806 83.6448 61.3912 87.8759 67.0663C88.0978 67.3618 88.3197 67.6722 88.5564 67.9678C91.1897 63.1794 93.0537 57.9477 94.0153 52.4796C91.7962 51.5781 90.2281 49.3908 90.2281 46.8488C90.2281 46.7454 90.2281 46.6419 90.2429 46.5237C88.009 45.0458 85.7011 43.6566 83.3489 42.3561L83.0235 42.1935ZM81.1002 34.5233C81.8547 35.3805 82.4317 36.4002 82.8015 37.5086C83.63 37.9372 84.4733 38.3806 85.2869 38.8239C87.506 40.0506 89.6955 41.3511 91.811 42.7403C92.5803 41.8979 93.5863 41.2772 94.7254 40.9669C94.4739 36.2524 93.5715 31.5971 92.0477 27.1782C91.9442 26.8679 91.8258 26.5723 91.7223 26.262C91.027 26.6905 90.3316 27.1191 89.6511 27.5773C86.5888 29.6167 83.7336 31.937 81.1002 34.5233ZM66.04 62.3814C68.1704 62.3814 69.8865 64.1105 69.8865 66.2239C69.8865 68.352 68.1704 70.0664 66.04 70.0664C63.9097 70.0664 62.1936 68.352 62.1936 66.2239C62.1936 64.0957 63.9245 62.3814 66.04 62.3814ZM46.8819 45.504C49.9443 45.504 52.4148 47.972 52.4148 51.0312C52.4148 54.0905 49.9443 56.5585 46.8819 56.5585C43.8196 56.5585 41.349 54.0905 41.349 51.0312C41.349 47.972 43.8344 45.504 46.8819 45.504ZM80.2422 8.11357C80.1091 7.98056 79.9907 7.83277 79.8871 7.67021C79.6208 7.59631 79.3546 7.5372 79.0735 7.4633C70.1971 5.27604 60.9953 4.43365 51.7491 4.99524C51.1721 6.01498 50.0774 6.70958 48.8199 6.70958C46.9707 6.70958 45.4617 5.20214 45.4617 3.35479C45.4617 1.50744 46.9707 0 48.8199 0C49.7519 0 50.5804 0.36947 51.1869 0.975402C60.9361 0.339913 70.6557 1.22664 80.0351 3.54692C81.0706 3.79816 82.0914 4.06417 83.1122 4.35975C90.1689 3.26612 97.2256 4.27108 103.513 7.03472C110.363 10.0348 116.295 15.1039 120.304 21.8283C122.301 25.0944 123.544 28.7152 124.017 32.4247C124.476 36.0603 124.195 39.7993 123.13 43.4054C123.071 44.0556 123.145 44.7059 123.322 45.3118C123.337 45.371 123.366 45.4153 123.366 45.4744C123.574 46.1247 123.929 46.7306 124.372 47.2774C124.417 47.3365 124.461 47.3809 124.506 47.44L131.917 57.4009C133.012 58.9823 132.82 60.5931 131.326 62.1893C130.468 63.1203 129.033 64.0662 127.065 65.0268C126.991 65.2041 126.932 65.4258 126.917 65.6918C126.873 66.3569 127.021 67.1993 127.346 68.2338C127.42 68.485 127.45 68.7215 127.435 68.958C127.42 69.8595 127.154 70.7314 126.68 71.4556C126.592 71.6034 126.488 71.7364 126.384 71.8694C126.473 72.1058 126.547 72.3423 126.606 72.5935C126.828 73.5246 126.813 74.5 126.562 75.4606C126.31 76.4065 125.822 77.2636 125.171 77.9583C124.92 78.2243 124.654 78.4755 124.343 78.6824C124.994 83.4264 124.091 86.8699 121.636 88.998C119.061 91.2296 114.949 91.7617 109.297 90.6089C106.694 90.8749 104.268 91.8503 102.256 93.3873C100.214 94.9539 98.6014 97.082 97.6694 99.5944C97.6398 99.7127 97.5807 99.8457 97.5215 99.9639C97.0037 100.954 95.7758 101.324 94.7994 100.806C87.6244 97.0229 80.2274 93.6829 72.6529 90.8158C66.691 88.5547 60.6255 86.5743 54.486 84.9043C53.5244 86.5152 51.7639 87.6088 49.7519 87.6088C46.7192 87.6088 44.2634 85.1555 44.2634 82.1111C44.2634 79.0814 46.7192 76.6282 49.7519 76.6282C52.3705 76.6282 54.56 78.446 55.1073 80.8992C60.6846 82.4067 66.2028 84.1506 71.6025 86.1309C77.5053 82.318 82.4761 77.3671 86.2633 71.6625C85.6863 70.9383 85.1242 70.2141 84.5768 69.4752C79.9611 63.2681 76.2922 56.3664 73.7625 48.977C69.2355 48.6371 65.6702 44.8537 65.6702 40.2427C65.6702 38.4249 66.2324 36.7254 67.1792 35.3361C56.8974 31.937 45.9795 30.2375 34.8249 30.4739C34.2183 31.3606 33.2123 31.937 32.0584 31.937C30.2092 31.937 28.7002 30.4296 28.7002 28.5822C28.7002 26.7349 30.2092 25.2274 32.0584 25.2274C33.094 25.2274 34.026 25.7004 34.6473 26.4393C47.1482 26.1585 59.3532 28.2128 70.7593 32.2917C71.8836 31.7745 73.1263 31.4789 74.443 31.4789C75.6117 31.4789 76.7212 31.7006 77.742 32.1144C80.7008 29.1586 83.9259 26.4984 87.3877 24.1929C87.7871 23.9269 88.1865 23.6757 88.586 23.4244C82.0175 20.114 75.1531 17.4686 68.0816 15.5621C49.6928 10.5669 29.9725 10.4338 10.9475 15.7099V15.8577C10.9475 18.8873 8.49171 21.3406 5.45895 21.3406C2.4262 21.3406 0 18.9021 0 15.8724C0 12.8428 2.45579 10.3895 5.48854 10.3895C6.99752 10.3895 8.37336 10.9954 9.36455 11.9856C29.2624 6.36967 49.9147 6.45834 69.1616 11.6753C75.7153 13.4487 82.121 15.8281 88.2605 18.7839C86.1006 14.9266 83.4081 11.3354 80.2422 8.11357Z" fill="#0B103F"/>
</svg>
