<svg width="14" height="14" viewBox="0 0 14 14" fill="none" xmlns="http://www.w3.org/2000/svg">
<path d="M13.25 8.375C13.3438 7.9375 13.4062 7.46875 13.4062 7C13.4062 3.46875 10.5312 0.59375 7 0.59375C6.53125 0.59375 6.0625 0.65625 5.625 0.75C5.03125 0.28125 4.28125 0 3.5 0C1.5625 0 0 1.59375 0 3.5C0 4.3125 0.25 5.0625 0.71875 5.65625C0.625 6.09375 0.5625 6.5625 0.5625 7C0.5625 10.5625 3.4375 13.4375 6.96875 13.4375C7.4375 13.4375 7.90625 13.375 8.34375 13.2812C8.9375 13.75 9.6875 14 10.4688 14C12.4062 14 13.9688 12.4375 13.9688 10.5C14 9.71875 13.7188 8.96875 13.25 8.375ZM7.1875 11.25C5.125 11.25 3.40625 10.3438 3.40625 9.21875C3.40625 8.71875 3.6875 8.25 4.34375 8.25C5.3125 8.25 5.40625 9.65625 7.09375 9.65625C7.875 9.65625 8.40625 9.3125 8.40625 8.84375C8.40625 8.25 7.90625 8.15625 7.09375 7.96875C5.15625 7.46875 3.40625 7.28125 3.40625 5.25C3.40625 3.375 5.25 2.6875 6.8125 2.6875C8.53125 2.6875 10.2812 3.375 10.2812 4.4375C10.2812 4.96875 9.9375 5.4375 9.34375 5.4375C8.46875 5.4375 8.4375 4.375 7 4.375C6.1875 4.375 5.6875 4.59375 5.6875 5.09375C5.6875 5.6875 6.34375 5.75 7.84375 6.125C9.125 6.40625 10.6875 6.9375 10.6875 8.53125C10.6875 10.375 8.90625 11.25 7.1875 11.25Z" fill="#3F50FF"/>
</svg>
