<svg width="16" height="16" viewBox="0 0 16 16" fill="none" xmlns="http://www.w3.org/2000/svg">
<path d="M7.75 0.25C3.46875 0.25 0 3.71875 0 8C0 12.2812 3.46875 15.75 7.75 15.75C12.0312 15.75 15.5 12.2812 15.5 8C15.5 3.71875 12.0312 0.25 7.75 0.25ZM11.5312 5.5625L10.2812 11.5625C10.1875 12 9.9375 12.0938 9.5625 11.9062L7.625 10.4688L6.6875 11.375C6.59375 11.4688 6.5 11.5625 6.3125 11.5625L6.4375 9.59375L10.0312 6.34375C10.1875 6.21875 10 6.125 9.78125 6.25L5.34375 9.0625L3.4375 8.46875C3.03125 8.34375 3.03125 8.03125 3.53125 7.84375L11 4.96875C11.3438 4.84375 11.6562 5.0625 11.5312 5.5625Z" fill="#3F50FF"/>
</svg>
